<svg width="1273" height="1024" viewBox="0 0 1273 1024" fill="none" xmlns="http://www.w3.org/2000/svg">
<path d="M618.5 321.5C861.7 176.3 885.167 46.6667 866.5 -1.52588e-05C961.833 -16.8333 1175.9 -40.4 1269.5 -1.52588e-05C1386.5 50.5 1054 351 1021.5 534C989 717 1026 818.5 632 962C316.8 1076.8 253.667 936.833 261.5 852.5C279.167 736 375.3 466.7 618.5 321.5Z" fill="#FF7200" fill-opacity="0.28"/>
<path d="M486.189 386.45C816.821 217.328 848.725 66.3371 823.347 11.982C952.954 -7.62462 1243.98 -35.0739 1371.23 11.982C1530.29 70.802 1078.26 420.81 1034.07 633.959C989.887 847.109 1040.19 965.331 504.542 1132.47C76.0249 1266.19 -9.80541 1103.16 0.844074 1004.93C24.8621 869.239 155.556 555.571 486.189 386.45Z" fill="#FF7200" fill-opacity="0.28"/>
</svg>
